<?xml version="1.0" encoding="UTF-8"?>
<svg id="uuid-6d34080d-e7ac-4b6e-bf7a-e71c68c801cf" data-name="Layer 1" xmlns="http://www.w3.org/2000/svg" viewBox="0 0 144 144">
  <defs>
    <style>
      .uuid-90bd9154-5f9e-4278-b235-518c941eac08 {
        fill: none;
        stroke: #fff;
        stroke-miterlimit: 10;
        stroke-width: 3px;
      }

      .uuid-c9166775-0173-4d98-ae68-1ec5a6b23047 {
        fill: #fff;
      }
    </style>
  </defs>
  <rect class="uuid-90bd9154-5f9e-4278-b235-518c941eac08" x="49.98" y="48.57" width="44.04" height="44.04" rx="5.4" ry="5.4"/>
  <circle class="uuid-c9166775-0173-4d98-ae68-1ec5a6b23047" cx="60.6" cy="59.63" r="3.27"/>
  <path class="uuid-c9166775-0173-4d98-ae68-1ec5a6b23047" d="M57.46,65.81c1.15-.07,4.33-.02,5.48-.03.52.04.76-.1.91.18.03,1.28,0,15.63.01,18.39,0,.48.07.55-.6.55-1.28,0-3.86,0-5.01,0-.52-.04-.76.1-.91-.18.04-1.07-.16-14.93.07-18.89l.04-.02Z"/>
  <path class="uuid-c9166775-0173-4d98-ae68-1ec5a6b23047" d="M67.47,84.87c-.17-1.39,0-17.47-.05-18.92.11-.29.45-.11,1.08-.17,1.37,0,3.95-.02,4.72.02.78-.25.2,2.68.57,2.38,2.18-3.27,9.11-5.03,11.99.72,1.7,3.66,1.09,7.34,1.21,11.37,0,2.03.02,3.96-.02,4.42-.03.16-.12.19-.3.21-.89,0-4.8.04-5.9-.01-.16-.03-.2-.1-.22-.26-.02-.98-.06-6.47-.09-9.02,0-1.75.13-4.02-1.87-5.03-2.86-1.42-4.95,1.63-4.86,4.06,0,2.52.08,7.05.08,9.98-.01.22-.1.26-.3.28-.94,0-5.1.05-6.02-.01h-.04Z"/>
</svg>